{"glyphs":{"0":{"ha":765,"x_min":43,"x_max":722,"o":"m 722 496 q 704 281 722 376 q 644 121 685 187 q 538 21 603 56 q 382 -14 473 -14 q 232 21 296 -14 q 126 121 168 56 q 63 281 84 187 q 43 496 43 376 q 61 711 43 616 q 121 871 80 806 q 226 972 161 937 q 382 1007 290 1007 q 531 972 467 1007 q 637 872 595 938 q 701 711 680 806 q 722 496 722 616 m 252 496 q 281 241 252 326 q 382 155 310 155 q 483 240 452 155 q 514 496 514 325 q 483 752 514 666 q 382 838 452 838 q 321 816 346 838 q 281 751 296 794 q 258 645 265 709 q 252 496 252 581 z "},"1":{"ha":765,"x_min":62,"x_max":554,"o":"m 554 0 l 345 0 l 345 574 q 345 616 345 591 q 346 668 345 641 q 348 722 347 694 q 350 771 349 749 q 338 759 347 767 q 320 741 330 751 q 299 721 310 731 q 278 703 288 711 l 164 611 l 62 737 l 382 991 l 554 991 l 554 0 z "},"2":{"ha":765,"x_min":53,"x_max":721,"o":"m 721 0 l 56 0 l 56 146 l 289 397 q 369 485 333 445 q 431 563 405 525 q 471 640 456 601 q 485 725 485 680 q 455 803 485 775 q 374 831 425 831 q 271 804 320 831 q 167 729 221 778 l 53 864 q 117 917 83 892 q 190 962 150 943 q 278 994 230 982 q 386 1006 326 1006 q 514 986 457 1006 q 610 930 570 966 q 672 842 650 894 q 693 726 693 791 q 673 615 693 668 q 617 510 652 562 q 535 409 582 459 q 436 306 489 358 l 317 186 l 317 176 l 721 176 l 721 0 z "},"3":{"ha":765,"x_min":39,"x_max":711,"o":"m 682 770 q 666 677 682 718 q 620 605 649 636 q 552 554 591 574 q 468 522 513 533 l 468 518 q 650 445 588 503 q 711 289 711 387 q 688 169 711 224 q 616 73 665 113 q 494 9 568 32 q 321 -14 420 -14 q 170 0 241 -14 q 39 40 100 13 l 39 218 q 103 190 69 202 q 171 169 137 178 q 238 157 205 161 q 300 153 271 153 q 397 163 358 153 q 458 194 435 174 q 491 241 481 214 q 501 301 501 269 q 489 356 501 332 q 448 398 476 381 q 374 425 420 416 q 262 435 329 435 l 192 435 l 192 582 l 261 582 q 365 593 323 582 q 431 624 406 604 q 466 669 456 643 q 476 724 476 694 q 443 806 476 777 q 339 836 410 836 q 278 830 307 836 q 226 813 250 823 q 182 792 202 804 q 146 768 162 780 l 40 908 q 102 947 68 929 q 175 978 136 964 q 260 998 214 991 q 357 1006 305 1006 q 490 990 430 1006 q 593 944 550 974 q 659 870 635 913 q 682 770 682 826 z "},"4":{"ha":765,"x_min":3,"x_max":736,"o":"m 736 205 l 616 205 l 616 0 l 412 0 l 412 205 l 3 205 l 3 351 l 424 991 l 616 991 l 616 368 l 736 368 l 736 205 m 412 368 l 412 536 q 413 562 412 545 q 414 600 413 578 q 415 643 414 621 q 417 686 416 665 q 419 721 418 706 q 421 743 420 736 l 415 743 q 388 683 403 715 q 353 619 372 651 l 187 368 l 412 368 z "},"5":{"ha":765,"x_min":58,"x_max":707,"o":"m 406 633 q 524 614 469 633 q 620 556 579 594 q 684 461 661 518 q 707 332 707 405 q 682 187 707 251 q 608 78 656 123 q 487 10 559 34 q 321 -14 414 -14 q 247 -10 283 -14 q 177 0 210 -7 q 113 16 143 6 q 58 40 83 26 l 58 221 q 113 196 82 208 q 178 175 144 184 q 245 162 212 167 q 310 157 279 157 q 448 194 401 157 q 496 314 496 232 q 449 426 496 387 q 306 464 403 464 q 268 462 288 464 q 229 456 248 460 q 192 449 210 453 q 161 441 174 446 l 78 486 l 115 991 l 639 991 l 639 814 l 297 814 l 281 619 q 331 629 302 624 q 406 633 360 633 z "},"6":{"ha":765,"x_min":52,"x_max":724,"o":"m 52 421 q 59 563 52 492 q 87 698 67 633 q 141 819 107 763 q 228 915 176 874 q 354 980 281 956 q 526 1003 428 1003 q 557 1002 541 1003 q 592 1001 574 1002 q 625 998 609 1000 q 654 993 642 996 l 654 825 q 600 835 629 831 q 542 839 571 839 q 391 816 450 839 q 298 753 332 793 q 249 655 263 712 q 231 529 234 598 l 239 529 q 272 575 252 553 q 317 611 291 596 q 375 635 342 627 q 447 644 407 644 q 563 623 511 644 q 650 562 614 602 q 705 464 686 522 q 724 330 724 406 q 701 186 724 250 q 636 78 678 122 q 534 10 594 33 q 400 -14 475 -14 q 263 13 327 -14 q 152 92 199 39 q 78 228 105 146 q 52 421 52 309 m 396 154 q 447 164 424 154 q 486 196 469 175 q 512 250 503 218 q 521 328 521 283 q 491 442 521 400 q 399 484 460 484 q 342 471 368 484 q 298 439 316 459 q 270 395 279 420 q 260 346 260 371 q 268 277 260 311 q 294 215 277 243 q 337 171 311 188 q 396 154 362 154 z "},"7":{"ha":765,"x_min":37,"x_max":721,"o":"m 140 0 l 493 814 l 37 814 l 37 990 l 721 990 l 721 859 l 359 0 l 140 0 z "},"8":{"ha":765,"x_min":49,"x_max":717,"o":"m 383 1004 q 500 989 445 1004 q 596 945 555 975 q 662 870 637 915 q 686 765 686 825 q 673 684 686 720 q 635 618 659 648 q 579 566 612 589 q 509 524 547 543 q 586 477 548 503 q 652 419 623 451 q 699 347 682 387 q 717 257 717 307 q 692 145 717 195 q 624 60 668 95 q 518 5 580 24 q 383 -14 457 -14 q 241 5 303 -14 q 136 57 178 23 q 71 140 93 91 q 49 252 49 190 q 64 343 49 302 q 104 416 79 384 q 165 474 130 449 q 239 518 199 499 q 176 564 205 539 q 126 619 147 589 q 92 686 104 649 q 79 766 79 722 q 104 870 79 825 q 171 944 129 914 q 268 989 213 975 q 383 1004 323 1004 m 243 264 q 252 214 243 237 q 278 175 260 191 q 321 150 295 159 q 380 140 347 140 q 487 174 452 140 q 522 262 522 208 q 510 314 522 291 q 480 356 498 336 q 437 391 461 375 q 390 422 414 408 l 375 432 q 321 400 345 417 q 279 362 296 382 q 252 317 262 341 q 243 264 243 292 m 382 851 q 340 844 359 851 q 307 825 321 838 q 285 793 293 812 q 277 750 277 774 q 285 701 277 722 q 308 664 294 680 q 342 636 323 648 q 383 611 361 623 q 423 635 404 622 q 457 664 442 648 q 480 702 471 681 q 489 750 489 723 q 481 793 489 774 q 458 825 473 812 q 425 844 444 838 q 382 851 405 851 z "},"9":{"ha":765,"x_min":43,"x_max":715,"o":"m 715 568 q 708 426 715 497 q 680 291 700 355 q 626 171 660 227 q 539 74 591 115 q 413 10 486 33 q 240 -14 339 -14 q 209 -13 226 -14 q 175 -11 192 -12 q 141 -8 157 -10 q 113 -4 125 -7 l 113 164 q 166 154 138 157 q 225 150 195 150 q 376 173 317 150 q 469 236 435 195 q 518 334 504 277 q 536 460 533 391 l 528 460 q 495 414 514 435 q 450 378 476 393 q 392 353 425 362 q 319 345 359 345 q 203 366 255 345 q 116 427 152 387 q 62 525 81 467 q 43 659 43 583 q 65 803 43 739 q 130 911 88 867 q 232 979 172 956 q 367 1003 292 1003 q 504 977 440 1003 q 614 897 568 951 q 688 762 661 844 q 715 568 715 680 m 371 835 q 320 825 343 835 q 280 793 297 814 q 255 739 264 772 q 245 661 245 706 q 276 547 245 589 q 368 505 307 505 q 425 517 399 505 q 469 549 451 530 q 497 593 488 569 q 507 643 507 618 q 499 712 507 677 q 473 773 490 746 q 430 818 456 801 q 371 835 405 835 z "}," ":{"ha":361,"x_min":0,"x_max":0,"o":""},"!":{"ha":397,"x_min":79,"x_max":317,"o":"m 282 329 l 117 329 l 82 991 l 317 991 l 282 329 m 79 97 q 89 151 79 129 q 114 186 98 173 q 152 206 130 200 q 199 212 174 212 q 244 206 222 212 q 281 186 265 200 q 307 151 298 173 q 317 97 317 129 q 307 45 317 66 q 281 9 298 23 q 244 -12 265 -5 q 199 -18 222 -18 q 152 -12 174 -18 q 114 9 130 -5 q 89 45 98 23 q 79 97 79 66 z "},"\"":{"ha":656,"x_min":90,"x_max":566,"o":"m 279 991 l 252 633 l 118 633 l 90 991 l 279 991 m 566 991 l 538 633 l 404 633 l 376 991 l 566 991 z "},"#":{"ha":897,"x_min":31,"x_max":867,"o":"m 677 572 l 646 415 l 821 415 l 821 275 l 619 275 l 567 0 l 418 0 l 471 275 l 339 275 l 288 0 l 142 0 l 192 275 l 31 275 l 31 415 l 218 415 l 250 572 l 79 572 l 79 714 l 275 714 l 328 990 l 476 990 l 424 714 l 558 714 l 611 990 l 757 990 l 704 714 l 867 714 l 867 572 l 677 572 m 366 415 l 498 415 l 530 572 l 397 572 l 366 415 z "},"$":{"ha":765,"x_min":66,"x_max":720,"o":"m 720 310 q 702 216 720 259 q 648 140 684 172 q 559 86 612 107 q 437 58 507 65 l 437 -81 l 345 -81 l 345 56 q 262 61 300 57 q 191 73 224 65 q 127 91 157 80 q 68 114 97 101 l 68 293 q 130 266 96 279 q 199 242 163 253 q 272 224 235 232 q 345 215 309 217 l 345 431 q 333 435 339 433 q 322 439 328 437 q 313 443 317 441 q 205 492 251 467 q 128 550 159 518 q 82 621 97 582 q 66 708 66 659 q 86 801 66 759 q 141 873 105 842 q 229 923 177 904 q 345 949 280 943 l 345 1055 l 437 1055 l 437 953 q 558 936 496 949 q 688 893 620 922 l 619 734 q 527 766 575 752 q 437 783 479 780 l 437 585 l 464 575 q 576 526 528 551 q 656 470 625 501 q 704 400 688 439 q 720 310 720 361 m 515 306 q 511 334 515 322 q 497 357 507 347 q 473 375 488 367 q 437 393 458 384 l 437 222 q 496 249 477 229 q 515 306 515 269 m 271 713 q 288 660 271 681 q 345 624 306 638 l 345 782 q 289 762 308 778 q 271 713 271 745 z "},"%":{"ha":1223,"x_min":43,"x_max":1181,"o":"m 214 694 q 229 566 214 608 q 278 524 244 524 q 327 566 311 524 q 343 694 343 608 q 278 864 343 864 q 229 822 244 864 q 214 694 214 781 m 514 696 q 500 564 514 623 q 457 466 486 506 q 383 405 428 426 q 277 383 338 383 q 175 405 219 383 q 102 466 132 426 q 58 564 73 506 q 43 696 43 623 q 56 827 43 769 q 99 924 70 884 q 172 985 127 964 q 277 1006 216 1006 q 379 985 335 1006 q 454 924 424 964 q 499 827 484 884 q 514 696 514 769 m 966 991 l 416 0 l 254 0 l 804 991 l 966 991 m 880 298 q 896 170 880 212 q 945 127 911 127 q 994 170 978 127 q 1010 298 1010 212 q 945 468 1010 468 q 896 426 911 468 q 880 298 880 385 m 1181 300 q 1167 169 1181 227 q 1124 71 1153 111 q 1050 9 1095 31 q 943 -12 1005 -12 q 842 9 886 -12 q 769 71 799 31 q 725 169 740 111 q 710 300 710 227 q 724 431 710 373 q 766 528 737 488 q 838 589 794 568 q 943 610 882 610 q 1046 589 1002 610 q 1120 528 1090 568 q 1165 431 1150 488 q 1181 300 1181 373 z "},"&":{"ha":1003,"x_min":56,"x_max":1000,"o":"m 1000 0 l 745 0 l 679 68 q 559 8 625 31 q 415 -14 494 -14 q 268 7 334 -14 q 154 64 201 27 q 81 153 107 101 q 56 268 56 205 q 68 361 56 320 q 104 435 81 402 q 160 496 127 469 q 233 547 193 523 q 190 607 208 578 q 161 664 172 636 q 145 721 150 692 q 140 779 140 749 q 161 874 140 832 q 219 945 182 916 q 307 990 256 975 q 419 1006 358 1006 q 527 991 477 1006 q 611 950 576 977 q 667 882 647 922 q 688 790 688 842 q 672 704 688 743 q 631 632 657 665 q 571 571 606 599 q 496 519 536 543 l 672 338 q 714 432 696 382 q 745 532 732 481 l 960 532 q 936 450 949 493 q 903 365 922 408 q 861 279 885 321 q 808 197 838 236 l 1000 0 m 273 288 q 284 234 273 258 q 314 194 295 210 q 360 169 334 178 q 416 160 386 160 q 492 171 457 160 q 555 200 526 181 l 346 424 q 292 363 311 395 q 273 288 273 330 m 496 762 q 489 798 496 783 q 471 822 482 812 q 446 836 460 831 q 418 840 432 840 q 388 836 403 840 q 360 823 372 832 q 339 799 347 814 q 332 761 332 783 q 347 694 332 726 q 390 632 363 663 q 469 692 442 662 q 496 762 496 722 z "},"'":{"ha":370,"x_min":90,"x_max":279,"o":"m 279 991 l 252 633 l 118 633 l 90 991 l 279 991 z "},"(":{"ha":471,"x_min":56,"x_max":429,"o":"m 56 380 q 68 548 56 465 q 105 708 80 630 q 169 857 130 785 q 260 991 207 928 l 429 991 q 285 704 334 861 q 236 382 236 547 q 248 221 236 301 q 285 64 260 141 q 345 -84 309 -12 q 428 -220 381 -156 l 260 -220 q 169 -89 207 -159 q 105 57 130 -19 q 68 215 80 134 q 56 380 56 296 z "},")":{"ha":471,"x_min":41,"x_max":415,"o":"m 415 380 q 403 215 415 296 q 366 57 391 134 q 302 -89 340 -19 q 211 -220 264 -159 l 43 -220 q 125 -84 90 -156 q 186 64 161 -12 q 222 221 210 141 q 235 382 235 301 q 186 704 235 547 q 41 991 137 861 l 211 991 q 302 857 264 928 q 366 708 340 785 q 403 548 391 630 q 415 380 415 465 z "},"*":{"ha":757,"x_min":43,"x_max":714,"o":"m 467 1055 l 439 806 l 692 876 l 714 705 l 484 689 l 635 488 l 481 406 l 375 618 l 282 407 l 122 488 l 272 689 l 43 707 l 69 876 l 317 806 l 289 1055 l 467 1055 z "},"+":{"ha":765,"x_min":60,"x_max":705,"o":"m 309 415 l 60 415 l 60 564 l 309 564 l 309 814 l 457 814 l 457 564 l 705 564 l 705 415 l 457 415 l 457 168 l 309 168 l 309 415 z "},",":{"ha":403,"x_min":43,"x_max":311,"o":"m 311 146 q 289 68 302 109 q 259 -16 275 26 q 226 -99 243 -58 q 192 -179 209 -141 l 43 -179 q 63 -93 53 -138 q 82 -4 73 -48 q 98 83 91 41 q 111 161 106 125 l 301 161 l 311 146 z "},"-":{"ha":447,"x_min":41,"x_max":406,"o":"m 41 288 l 41 457 l 406 457 l 406 288 l 41 288 z "},".":{"ha":396,"x_min":79,"x_max":317,"o":"m 79 97 q 89 151 79 129 q 114 186 98 173 q 152 206 130 200 q 199 212 174 212 q 244 206 222 212 q 281 186 265 200 q 307 151 298 173 q 317 97 317 129 q 307 45 317 66 q 281 9 298 23 q 244 -12 265 -5 q 199 -18 222 -18 q 152 -12 174 -18 q 114 9 130 -5 q 89 45 98 23 q 79 97 79 66 z "},"/":{"ha":574,"x_min":9,"x_max":567,"o":"m 567 991 l 197 0 l 9 0 l 379 991 l 567 991 z "},":":{"ha":396,"x_min":79,"x_max":317,"o":"m 79 97 q 89 151 79 129 q 114 186 98 173 q 152 206 130 200 q 199 212 174 212 q 244 206 222 212 q 281 186 265 200 q 307 151 298 173 q 317 97 317 129 q 307 45 317 66 q 281 9 298 23 q 244 -12 265 -5 q 199 -18 222 -18 q 152 -12 174 -18 q 114 9 130 -5 q 89 45 98 23 q 79 97 79 66 m 79 657 q 89 711 79 689 q 114 747 98 733 q 152 766 130 760 q 199 772 174 772 q 244 766 222 772 q 281 747 265 760 q 307 711 298 733 q 317 657 317 689 q 307 605 317 627 q 281 569 298 583 q 244 548 265 555 q 199 542 222 542 q 152 548 174 542 q 114 569 130 555 q 89 605 98 583 q 79 657 79 627 z "},";":{"ha":403,"x_min":43,"x_max":317,"o":"m 301 161 l 311 146 q 289 68 302 109 q 259 -16 275 26 q 226 -99 243 -58 q 192 -179 209 -141 l 43 -179 q 63 -93 53 -138 q 82 -4 73 -48 q 98 83 91 41 q 111 161 106 125 l 301 161 m 79 657 q 89 711 79 689 q 114 747 98 733 q 152 766 130 760 q 199 772 174 772 q 244 766 222 772 q 281 747 265 760 q 307 711 298 733 q 317 657 317 689 q 307 605 317 627 q 281 569 298 583 q 244 548 265 555 q 199 542 222 542 q 152 548 174 542 q 114 569 130 555 q 89 605 98 583 q 79 657 79 627 z "},"<":{"ha":765,"x_min":60,"x_max":705,"o":"m 705 138 l 60 435 l 60 532 l 705 868 l 705 705 l 269 490 l 705 300 l 705 138 z "},"=":{"ha":765,"x_min":60,"x_max":705,"o":"m 60 547 l 60 694 l 705 694 l 705 547 l 60 547 m 60 283 l 60 432 l 705 432 l 705 283 l 60 283 z "},">":{"ha":765,"x_min":60,"x_max":705,"o":"m 60 300 l 496 490 l 60 705 l 60 868 l 705 532 l 705 435 l 60 138 l 60 300 z "},"?":{"ha":637,"x_min":17,"x_max":600,"o":"m 179 329 l 179 379 q 186 442 179 414 q 208 495 193 470 q 245 545 222 521 q 301 595 269 569 q 349 635 330 617 q 381 670 369 652 q 399 706 393 687 q 404 750 404 725 q 378 814 404 789 q 298 839 352 839 q 198 819 252 839 q 86 771 144 800 l 17 921 q 80 953 46 938 q 152 980 115 968 q 227 999 189 992 q 301 1006 264 1006 q 426 989 370 1006 q 520 941 481 972 q 579 863 559 909 q 600 760 600 818 q 591 683 600 717 q 563 621 581 650 q 516 565 544 592 q 450 509 488 538 q 404 470 422 486 q 376 438 386 453 q 362 407 366 423 q 358 370 358 391 l 358 329 l 179 329 m 157 97 q 166 151 157 129 q 191 186 175 173 q 230 206 208 200 q 277 212 252 212 q 322 206 300 212 q 359 186 343 200 q 385 151 376 173 q 395 97 395 129 q 385 45 395 66 q 359 9 376 23 q 322 -12 343 -5 q 277 -18 300 -18 q 230 -12 252 -18 q 191 9 208 -5 q 166 45 175 23 q 157 97 157 66 z "},"@":{"ha":1203,"x_min":69,"x_max":1135,"o":"m 1135 510 q 1119 382 1135 446 q 1073 270 1104 319 q 995 189 1042 220 q 884 158 947 158 q 835 164 858 158 q 793 183 812 171 q 761 211 774 195 q 739 245 747 227 l 729 245 q 699 213 716 229 q 661 184 682 197 q 615 165 640 172 q 559 158 589 158 q 459 177 503 158 q 386 232 416 197 q 340 318 356 268 q 325 428 325 368 q 346 556 325 498 q 406 657 367 614 q 502 723 446 699 q 628 746 558 746 q 691 743 659 746 q 754 734 724 739 q 810 722 784 728 q 856 708 837 715 l 842 424 q 840 395 840 409 q 840 376 840 380 q 845 330 840 348 q 856 301 849 311 q 872 286 863 290 q 892 282 882 282 q 933 300 916 282 q 962 350 951 319 q 980 423 974 381 q 986 511 986 465 q 960 666 986 598 q 889 781 935 734 q 780 852 843 827 q 643 876 717 876 q 460 842 539 876 q 328 745 381 807 q 247 598 275 683 q 220 412 220 513 q 243 247 220 319 q 314 125 267 174 q 429 51 361 76 q 587 25 498 25 q 665 30 625 25 q 745 43 705 35 q 823 62 785 51 q 896 87 861 74 l 896 -43 q 754 -88 832 -71 q 589 -104 677 -104 q 369 -70 466 -104 q 206 31 273 -35 q 104 192 140 97 q 69 408 69 288 q 87 569 69 492 q 140 712 106 646 q 225 832 175 779 q 338 925 275 886 q 479 984 402 963 q 643 1004 555 1004 q 840 970 750 1004 q 996 872 930 936 q 1098 716 1061 808 q 1135 510 1135 625 m 482 425 q 508 316 482 349 q 576 282 534 282 q 626 295 605 282 q 660 333 646 309 q 680 390 673 357 q 689 465 687 424 l 697 615 q 665 621 684 618 q 628 623 647 623 q 560 606 588 623 q 515 561 532 589 q 490 497 498 533 q 482 425 482 462 z "},"{":{"ha":505,"x_min":21,"x_max":492,"o":"m 195 183 q 150 277 195 249 q 21 304 106 304 l 21 467 q 96 473 63 467 q 151 494 129 479 q 185 532 174 509 q 195 587 196 555 l 195 803 q 208 889 195 853 q 254 947 220 924 q 345 981 288 970 q 492 991 403 991 l 492 839 q 443 834 465 838 q 405 820 420 830 q 382 791 390 809 q 374 743 374 772 l 374 541 q 215 390 370 414 l 215 382 q 334 333 293 370 q 374 232 376 296 l 374 29 q 382 -18 374 0 q 405 -47 390 -37 q 443 -62 420 -58 q 492 -66 465 -66 l 492 -220 q 345 -209 403 -220 q 254 -175 288 -198 q 208 -117 220 -153 q 195 -31 195 -81 l 195 183 z "},"|":{"ha":765,"x_min":309,"x_max":457,"o":"m 309 1051 l 457 1051 l 457 -315 l 309 -315 l 309 1051 z "},"}":{"ha":505,"x_min":21,"x_max":492,"o":"m 318 -31 q 305 -117 318 -81 q 259 -175 292 -153 q 168 -209 225 -198 q 21 -220 110 -220 l 21 -66 q 70 -62 48 -66 q 107 -47 92 -58 q 131 -18 122 -37 q 139 29 139 0 l 139 232 q 178 333 137 296 q 297 382 220 370 l 297 390 q 139 541 143 414 l 139 743 q 131 791 139 772 q 107 820 122 809 q 70 834 92 830 q 21 839 48 838 l 21 991 q 168 981 110 991 q 259 947 225 970 q 305 889 292 924 q 318 803 318 853 l 318 587 q 328 532 317 555 q 361 494 339 509 q 417 473 384 479 q 492 467 450 467 l 492 304 q 362 277 407 304 q 318 183 318 249 l 318 -31 z "},"~":{"ha":765,"x_min":60,"x_max":705,"o":"m 358 418 q 314 436 333 429 q 278 448 294 444 q 248 454 262 452 q 218 456 234 456 q 178 449 199 456 q 136 432 157 443 q 97 406 116 420 q 60 374 77 391 l 60 530 q 137 586 94 567 q 233 604 180 604 q 271 603 254 604 q 308 596 288 601 q 351 583 327 591 q 407 561 374 574 q 452 543 433 550 q 488 531 471 536 q 518 525 504 527 q 547 524 532 524 q 588 530 567 524 q 629 547 609 536 q 669 573 650 558 q 705 606 688 589 l 705 449 q 532 375 637 375 q 494 377 511 375 q 457 383 477 378 q 414 396 438 387 q 358 418 391 404 z "},"​":{"ha":0,"x_min":0,"x_max":0,"o":""},"«":{"ha":812,"x_min":56,"x_max":757,"o":"m 56 389 l 265 697 l 414 616 l 267 380 l 414 144 l 265 64 l 56 371 l 56 389 m 399 389 l 608 697 l 757 616 l 610 380 l 757 144 l 608 64 l 399 371 l 399 389 z "},"­":{"ha":447,"x_min":41,"x_max":406,"o":"m 41 288 l 41 457 l 406 457 l 406 288 l 41 288 z "},"»":{"ha":812,"x_min":57,"x_max":758,"o":"m 758 371 l 549 64 l 400 144 l 547 380 l 400 616 l 549 697 l 758 389 l 758 371 m 415 371 l 205 64 l 57 144 l 204 380 l 57 616 l 205 697 l 415 389 l 415 371 z "},"ក":{"ha":882,"x_min":102,"x_max":780,"o":"m 780 814 l 780 686 l 102 686 l 102 814 l 780 814 m 297 387 l 297 0 l 102 0 l 102 387 q 441 606 102 606 q 780 387 780 606 l 780 0 l 585 0 l 585 387 q 441 478 585 478 q 297 387 297 478 z "},"ខ":{"ha":882,"x_min":102,"x_max":780,"o":"m 297 307 l 297 219 q 441 127 297 127 q 585 219 585 127 l 585 326 l 780 326 l 780 219 q 441 0 780 0 q 102 219 102 0 l 102 397 l 377 445 q 585 595 585 486 q 441 686 585 686 q 297 608 297 686 q 365 585 297 585 l 365 488 l 229 488 q 102 585 102 488 l 102 608 q 441 814 102 814 q 780 595 780 814 q 384 325 780 390 l 297 307 z "},"គ":{"ha":882,"x_min":102,"x_max":780,"o":"m 780 814 l 780 686 l 102 686 l 102 814 l 780 814 m 297 256 q 389 305 336 305 l 475 305 l 475 178 l 404 178 q 306 134 334 178 q 297 119 301 126 l 297 0 l 102 0 l 102 387 q 441 606 102 606 q 780 387 780 606 l 780 0 l 585 0 l 585 387 q 441 478 585 478 q 297 387 297 478 l 297 256 z "},"ឃ":{"ha":1289,"x_min":40,"x_max":1187,"o":"m 551 547 l 479 614 l 444 648 q 423 686 423 667 q 434 714 423 701 l 459 747 l 510 814 l 746 814 l 746 686 l 544 686 l 746 570 l 746 219 q 869 127 746 127 q 991 219 991 127 l 991 547 l 920 614 l 885 648 q 864 686 864 667 q 875 714 864 701 l 900 747 l 951 814 l 1187 814 l 1187 686 l 985 686 l 1187 570 l 1187 219 q 869 0 1187 0 q 648 66 720 0 q 424 0 576 0 q 102 219 102 0 l 102 654 q 40 686 102 686 l 40 814 l 161 814 q 297 745 297 814 l 297 219 q 424 127 297 127 q 551 219 551 127 l 551 547 z "},"ង":{"ha":882,"x_min":41,"x_max":780,"o":"m 102 329 q 41 357 102 357 l 41 488 l 170 488 q 297 357 297 488 l 297 177 l 441 309 l 585 178 l 585 488 q 562 566 585 522 q 359 532 465 532 q 102 705 102 532 l 102 949 l 297 949 l 297 705 q 359 640 297 640 q 478 660 410 640 q 427 716 427 681 q 556 814 427 814 q 712 716 712 814 q 666 635 712 674 q 695 624 680 631 q 780 488 780 588 l 780 0 l 598 0 l 441 142 l 284 0 l 102 0 l 102 329 z "},"ច":{"ha":882,"x_min":34,"x_max":780,"o":"m 585 414 l 585 496 q 543 455 543 496 q 585 414 543 414 m 102 533 l 83 557 q 34 648 34 620 q 46 690 34 673 l 148 814 l 780 814 l 780 686 l 178 686 l 164 669 q 161 661 161 666 q 297 556 161 639 l 297 219 q 441 94 297 94 q 585 219 585 94 l 585 320 q 442 455 442 320 q 618 590 442 590 q 780 507 780 590 l 780 219 q 441 0 780 0 q 102 219 102 0 l 102 533 z "},"ឆ":{"ha":882,"x_min":34,"x_max":780,"o":"m 585 414 l 585 496 q 543 455 543 496 q 585 414 543 414 m 102 533 l 83 557 q 34 648 34 620 q 46 690 34 673 l 148 814 l 780 814 l 780 686 l 178 686 l 164 669 q 161 661 161 666 q 297 556 161 639 l 297 271 l 364 271 q 460 219 431 271 q 516 142 494 157 q 556 127 539 127 q 579 142 573 127 q 585 219 585 157 l 585 320 q 442 455 442 320 q 618 590 442 590 q 780 507 780 590 l 780 219 q 726 49 780 98 q 556 0 671 0 q 417 63 468 0 l 349 144 l 297 144 l 297 0 l 102 0 q 34 191 34 110 q 102 271 34 271 l 102 533 z "},"ជ":{"ha":882,"x_min":34,"x_max":780,"o":"m 585 606 l 780 606 l 780 0 l 598 0 l 441 142 l 284 0 l 102 0 l 102 533 l 83 557 q 34 648 34 620 q 46 690 34 673 l 148 814 l 543 814 q 585 848 585 814 l 585 949 l 780 949 l 780 848 q 631 686 780 686 l 178 686 l 164 669 q 161 661 161 666 q 297 556 161 639 l 297 177 l 441 309 l 585 178 l 585 606 z "},"ឈ":{"ha":1737,"x_min":102,"x_max":1636,"o":"m 297 210 l 297 94 q 359 169 359 94 q 297 210 359 210 m 1440 547 l 1369 614 l 1334 648 q 1313 686 1313 667 q 1324 714 1313 701 l 1349 747 l 1400 814 l 1636 814 l 1636 686 l 1434 686 l 1636 570 l 1636 219 q 1318 0 1636 0 q 1097 66 1169 0 q 873 0 1025 0 q 551 219 551 0 l 551 595 q 424 686 551 686 q 297 595 297 686 l 297 304 q 439 169 439 304 q 297 0 439 0 l 199 0 q 102 83 102 0 l 102 595 q 424 814 102 814 q 746 595 746 814 l 746 219 q 873 127 746 127 q 1000 219 1000 127 l 1000 547 l 928 614 l 893 648 q 872 686 872 667 q 883 714 872 701 l 908 747 l 959 814 l 1195 814 l 1195 686 l 993 686 l 1195 570 l 1195 219 q 1318 127 1195 127 q 1440 219 1440 127 l 1440 547 z "},"ញ":{"ha":1322,"x_min":102,"x_max":1221,"o":"m 949 -68 l 1221 -68 l 1221 -176 q 964 -339 1221 -339 q 695 -271 804 -339 q 407 -203 586 -203 l 102 -203 l 102 -88 l 407 -88 q 755 -156 642 -88 q 964 -224 869 -224 q 1025 -176 1025 -224 l 1025 -149 l 949 -149 l 949 -68 m 297 210 l 297 94 q 359 169 359 94 q 297 210 359 210 m 727 754 q 903 814 789 814 q 1221 595 1221 814 l 1221 0 l 1025 0 l 1025 595 q 903 686 1025 686 q 813 655 839 686 q 780 597 795 633 l 780 0 l 585 0 l 585 626 q 561 678 585 678 q 481 614 536 678 q 441 593 463 593 q 401 614 419 593 q 321 678 346 678 q 297 626 297 678 l 297 304 q 439 169 439 304 q 297 0 439 0 l 199 0 q 102 83 102 0 l 102 626 q 159 758 102 703 q 281 814 217 814 q 441 730 366 814 q 602 814 517 814 q 723 758 665 814 q 727 754 725 756 z "},"ដ":{"ha":882,"x_min":102,"x_max":780,"o":"m 102 848 l 297 848 l 297 760 l 509 760 q 585 793 585 760 l 585 949 l 780 949 l 780 793 q 617 632 780 632 l 102 632 l 102 848 m 297 177 l 441 309 l 585 178 l 585 558 l 780 558 l 780 0 l 598 0 l 441 142 l 284 0 l 102 0 l 102 558 l 297 558 l 297 177 z "},"ឋ":{"ha":882,"x_min":34,"x_max":780,"o":"m 102 654 q 34 686 102 686 l 34 814 l 161 814 q 297 745 297 814 l 297 219 q 441 94 297 94 q 585 219 585 94 l 585 506 l 437 648 q 416 686 416 667 q 427 714 416 701 l 452 747 l 503 814 l 551 814 q 585 848 585 814 l 585 949 l 780 949 l 780 848 q 639 686 780 686 l 571 686 l 780 570 l 780 219 q 441 0 780 0 q 102 219 102 0 l 102 654 z "},"ឌ":{"ha":882,"x_min":102,"x_max":780,"o":"m 585 104 q 339 0 448 0 q 166 63 231 0 q 102 219 102 125 l 102 397 l 377 445 q 585 595 585 479 l 585 626 q 561 678 585 678 q 481 614 536 678 q 441 593 463 593 q 401 614 419 593 q 321 678 346 678 q 297 626 297 678 l 297 608 q 331 585 297 585 l 331 488 l 263 488 q 102 585 102 488 l 102 626 q 302 814 102 814 q 441 730 366 814 q 581 814 517 814 q 780 626 780 814 l 780 595 q 384 318 780 390 l 297 300 l 297 219 q 349 127 297 127 q 491 179 397 127 q 585 273 585 231 l 585 326 l 780 326 l 780 -34 l 585 -34 l 585 104 z "},"ឍ":{"ha":1289,"x_min":102,"x_max":1187,"o":"m 297 210 l 297 94 q 359 169 359 94 q 297 210 359 210 m 780 76 l 780 0 l 585 0 l 585 626 q 561 678 585 678 q 481 614 536 678 q 441 593 463 593 q 401 614 419 593 q 321 678 346 678 q 297 626 297 678 l 297 304 q 439 169 439 304 q 297 0 439 0 l 199 0 q 102 83 102 0 l 102 626 q 159 758 102 703 q 281 814 217 814 q 441 730 366 814 q 602 814 517 814 q 723 758 665 814 q 780 626 780 703 l 780 271 l 838 271 l 867 219 q 923 142 901 157 q 963 127 946 127 q 986 142 980 127 q 991 219 991 157 l 991 547 l 920 614 l 885 648 q 864 686 864 667 q 875 714 864 701 l 900 747 l 951 814 l 1187 814 l 1187 686 l 985 686 l 1187 570 l 1187 219 q 1119 63 1187 125 q 963 0 1051 0 q 790 63 841 0 q 780 76 785 69 z "},"ណ":{"ha":1721,"x_min":102,"x_max":1619,"o":"m 297 210 l 297 94 q 359 169 359 94 q 297 210 359 210 m 983 178 l 983 595 q 1301 814 983 814 q 1619 595 1619 814 l 1619 0 l 1424 0 l 1424 595 q 1301 686 1424 686 q 1179 595 1179 686 l 1179 0 l 997 0 l 861 123 l 725 0 l 543 0 l 543 595 q 420 686 543 686 q 297 595 297 686 l 297 304 q 439 169 439 304 q 297 0 439 0 l 199 0 q 102 83 102 0 l 102 595 q 420 814 102 814 q 738 595 738 814 l 738 177 l 861 290 l 983 178 z "},"ត":{"ha":882,"x_min":102,"x_max":780,"o":"m 780 814 l 780 686 l 102 686 l 102 814 l 780 814 m 297 304 q 439 169 439 304 q 297 0 439 0 l 199 0 q 102 83 102 0 l 102 387 q 441 606 102 606 q 780 387 780 606 l 780 0 l 585 0 l 585 387 q 441 478 585 478 q 297 387 297 478 l 297 304 m 297 94 q 359 169 359 94 q 297 210 359 210 l 297 94 z "},"ថ":{"ha":882,"x_min":34,"x_max":780,"o":"m 585 414 l 585 496 q 543 455 543 496 q 585 414 543 414 m 297 219 q 441 94 297 94 q 585 219 585 94 l 585 320 q 442 455 442 320 q 618 590 442 590 q 780 507 780 590 l 780 219 q 441 0 780 0 q 102 219 102 0 l 102 533 l 83 557 q 34 648 34 620 q 46 690 34 673 l 148 814 l 543 814 q 585 848 585 814 l 585 949 l 780 949 l 780 848 q 631 686 780 686 l 178 686 l 164 669 q 161 661 161 666 q 297 556 161 639 l 297 219 z "},"ទ":{"ha":882,"x_min":102,"x_max":780,"o":"m 738 303 l 738 219 q 437 0 738 0 q 136 219 136 0 l 136 312 l 331 312 l 331 219 q 437 127 331 127 q 543 219 543 127 l 543 313 q 102 595 102 376 q 441 814 102 814 q 780 608 780 814 l 780 574 l 585 574 l 585 608 q 441 686 585 686 q 297 595 297 686 q 548 441 297 493 q 568 471 554 457 q 661 495 592 495 q 755 464 730 495 q 780 376 780 432 q 755 317 780 341 q 738 303 747 309 z "},"ធ":{"ha":882,"x_min":34,"x_max":780,"o":"m 585 320 q 442 455 442 320 q 618 590 442 590 q 780 507 780 590 l 780 0 l 598 0 l 441 142 l 284 0 l 102 0 l 102 533 l 83 557 q 34 648 34 620 q 46 690 34 673 l 148 814 l 780 814 l 780 686 l 178 686 l 164 669 q 161 661 161 666 q 297 556 161 639 l 297 177 l 441 309 l 585 178 l 585 320 m 585 496 q 543 455 543 496 q 585 414 543 414 l 585 496 z "},"ន":{"ha":882,"x_min":102,"x_max":780,"o":"m 498 332 q 102 595 102 410 q 441 814 102 814 q 780 622 780 814 l 780 599 q 652 501 780 501 l 530 501 l 530 599 q 585 622 585 599 q 441 686 585 686 q 297 595 297 686 q 528 452 297 496 q 780 246 780 400 l 780 192 q 543 0 780 0 q 391 55 468 0 q 297 110 315 110 l 297 0 l 102 0 l 102 341 l 297 341 l 297 237 q 448 182 384 237 q 543 127 512 127 q 585 185 585 127 l 585 246 q 498 332 585 314 z "},"ប":{"ha":882,"x_min":26,"x_max":780,"o":"m 102 572 l 68 614 l 41 648 q 26 682 26 665 q 39 714 26 698 l 64 747 l 115 814 l 338 814 l 338 686 l 149 686 l 297 570 l 297 219 q 441 127 297 127 q 585 219 585 127 l 585 547 l 513 614 l 478 648 q 457 686 457 667 q 468 714 457 701 l 493 747 l 544 814 l 780 814 l 780 686 l 578 686 l 780 570 l 780 219 q 441 0 780 0 q 102 219 102 0 l 102 572 z "},"ផ":{"ha":882,"x_min":34,"x_max":780,"o":"m 585 414 l 585 496 q 543 455 543 496 q 585 414 543 414 m 585 320 q 442 455 442 320 q 618 590 442 590 q 780 507 780 590 l 780 0 l 598 0 l 441 142 l 284 0 l 102 0 l 102 533 l 83 557 q 34 648 34 620 q 46 690 34 673 l 148 814 l 543 814 q 585 848 585 814 l 585 949 l 780 949 l 780 848 q 631 686 780 686 l 178 686 l 164 669 q 161 661 161 666 q 297 556 161 639 l 297 177 l 441 309 l 585 178 l 585 320 z "},"ព":{"ha":882,"x_min":102,"x_max":780,"o":"m 297 210 l 297 94 q 359 169 359 94 q 297 210 359 210 m 102 626 q 159 758 102 703 q 281 814 217 814 q 441 730 366 814 q 602 814 517 814 q 723 758 665 814 q 780 626 780 703 l 780 0 l 585 0 l 585 626 q 561 678 585 678 q 481 614 536 678 q 441 593 463 593 q 401 614 419 593 q 321 678 346 678 q 297 626 297 678 l 297 304 q 439 169 439 304 q 297 0 439 0 l 199 0 q 102 83 102 0 l 102 626 z "},"ភ":{"ha":882,"x_min":20,"x_max":780,"o":"m 780 814 l 780 686 l 102 686 l 102 814 l 780 814 m 297 407 q 321 301 297 366 q 345 152 345 236 q 160 0 345 0 q 20 151 47 0 l 100 179 q 126 132 102 132 q 149 152 149 132 q 125 262 149 181 q 102 407 102 344 q 441 606 102 606 q 780 387 780 606 l 780 0 l 585 0 l 585 387 q 441 478 585 478 q 297 407 297 478 z "},"ម":{"ha":882,"x_min":26,"x_max":780,"o":"m 585 471 l 585 547 l 513 614 l 478 648 q 457 686 457 667 q 468 714 457 701 l 493 747 l 544 814 l 780 814 l 780 686 l 578 686 l 780 570 l 780 219 q 441 0 780 0 q 102 219 102 0 l 102 572 l 68 614 l 41 648 q 26 682 26 665 q 39 714 26 698 l 64 747 l 115 814 l 338 814 l 338 686 l 149 686 l 297 570 l 297 471 l 585 471 m 585 343 l 297 343 l 297 219 q 441 127 297 127 q 585 219 585 127 l 585 343 z "},"យ":{"ha":1322,"x_min":102,"x_max":1221,"o":"m 102 745 q 203 814 102 814 l 379 814 l 379 686 q 297 654 297 686 l 297 219 q 441 127 297 127 q 585 219 585 127 l 585 547 l 513 614 l 478 648 q 457 686 457 667 q 468 714 457 701 l 493 747 l 544 814 l 780 814 l 780 686 l 578 686 l 780 570 l 780 219 q 903 127 780 127 q 1025 219 1025 127 l 1025 547 l 954 614 l 919 648 q 898 686 898 667 q 909 714 898 701 l 934 747 l 985 814 l 1221 814 l 1221 686 l 1019 686 l 1221 570 l 1221 219 q 903 0 1221 0 q 682 66 754 0 q 441 0 610 0 q 102 219 102 0 l 102 745 z "},"រ":{"ha":399,"x_min":26,"x_max":297,"o":"m 125 210 q 107 169 107 210 q 125 100 107 100 q 142 155 142 100 q 125 210 142 210 m 102 572 l 68 614 l 41 648 q 26 682 26 665 q 39 714 26 698 l 64 747 l 115 814 l 297 814 l 297 686 l 149 686 l 297 570 l 297 83 q 233 0 297 0 l 136 0 q 27 169 27 0 q 102 304 27 304 l 102 572 z "},"ល":{"ha":1289,"x_min":102,"x_max":1187,"o":"m 297 210 l 297 94 q 359 169 359 94 q 297 210 359 210 m 1187 219 q 869 0 1187 0 q 551 219 551 0 l 551 595 q 424 686 551 686 q 297 595 297 686 l 297 304 q 439 169 439 304 q 297 0 439 0 l 199 0 q 102 83 102 0 l 102 595 q 424 814 102 814 q 746 595 746 814 l 746 219 q 869 127 746 127 q 991 219 991 127 l 991 547 l 920 614 l 885 648 q 864 686 864 667 q 875 714 864 701 l 900 747 l 951 814 l 1187 814 l 1187 686 l 985 686 l 1187 570 l 1187 219 z "},"វ":{"ha":399,"x_min":8,"x_max":373,"o":"m 125 210 q 107 169 107 210 q 125 100 107 100 q 142 155 142 100 q 125 210 142 210 m 102 547 q 8 686 8 667 q 19 714 8 701 l 44 747 l 95 814 l 149 814 q 178 848 178 814 l 178 949 l 373 949 l 373 848 q 231 686 373 686 l 129 686 l 297 570 l 297 83 q 233 0 297 0 l 136 0 q 27 169 27 0 q 102 304 27 304 l 102 547 z "},"ឝ":{"ha":882,"x_min":102,"x_max":814,"o":"m 780 814 l 780 686 l 102 686 l 102 814 l 780 814 m 780 305 l 814 305 l 814 178 l 780 178 l 780 0 l 585 0 l 585 178 l 502 178 l 502 305 l 585 305 l 585 387 q 441 478 585 478 q 297 387 297 478 l 297 256 q 389 305 336 305 l 475 305 l 475 178 l 404 178 q 306 134 334 178 q 297 119 301 126 l 297 0 l 102 0 l 102 387 q 441 606 102 606 q 780 387 780 606 l 780 305 z "},"ឞ":{"ha":882,"x_min":26,"x_max":814,"o":"m 780 488 l 814 488 l 814 360 l 780 360 l 780 219 q 441 0 780 0 q 102 219 102 0 l 102 572 l 68 614 l 41 648 q 26 682 26 665 q 39 714 26 698 l 64 747 l 115 814 l 338 814 l 338 686 l 149 686 l 297 570 l 297 219 q 441 127 297 127 q 585 219 585 127 l 585 360 l 502 360 l 502 488 l 585 488 l 585 547 l 513 614 l 478 648 q 457 686 457 667 q 468 714 457 701 l 493 747 l 544 814 l 780 814 l 780 686 l 578 686 l 780 570 l 780 488 z "},"ស":{"ha":1289,"x_min":102,"x_max":1187,"o":"m 297 210 l 297 94 q 359 169 359 94 q 297 210 359 210 m 205 576 l 149 648 q 135 682 135 665 q 148 714 135 698 l 173 747 l 224 814 l 610 814 l 610 686 l 258 686 l 334 612 q 424 617 375 617 q 746 398 746 617 l 746 219 q 869 127 746 127 q 991 219 991 127 l 991 547 l 920 614 l 885 648 q 864 686 864 667 q 875 714 864 701 l 900 747 l 951 814 l 1187 814 l 1187 686 l 985 686 l 1187 570 l 1187 219 q 869 0 1187 0 q 551 219 551 0 l 551 398 q 424 490 551 490 q 297 398 297 490 l 297 304 q 439 169 439 304 q 297 0 439 0 l 199 0 q 102 83 102 0 l 102 398 q 205 576 102 522 z "},"ហ":{"ha":1289,"x_min":26,"x_max":1187,"o":"m 297 219 q 424 127 297 127 q 551 219 551 127 l 551 595 q 869 814 551 814 q 1187 595 1187 814 l 1187 0 l 991 0 l 991 595 q 869 686 991 686 q 746 595 746 686 l 746 219 q 424 0 746 0 q 102 219 102 0 l 102 572 l 68 614 l 41 648 q 26 682 26 665 q 39 714 26 698 l 64 747 l 115 814 l 338 814 l 338 686 l 149 686 l 297 570 l 297 219 z "},"ឡ":{"ha":1289,"x_min":102,"x_max":1187,"o":"m 738 303 l 738 219 q 437 0 738 0 q 136 219 136 0 l 136 312 l 331 312 l 331 219 q 437 127 331 127 q 543 219 543 127 l 543 313 q 102 595 102 376 q 441 814 102 814 q 780 608 780 814 l 780 574 l 585 574 l 585 608 q 441 686 585 686 q 297 595 297 686 q 548 441 297 493 q 568 471 554 457 q 661 495 592 495 q 755 464 730 495 q 780 376 780 432 q 755 317 780 341 q 738 303 747 309 m 991 -188 l 991 547 l 920 614 l 885 648 q 864 686 864 667 q 875 714 864 701 l 900 747 l 951 814 l 1187 814 l 1187 686 l 985 686 l 1187 570 l 1187 -332 l 1005 -332 l 865 -205 l 725 -332 l 543 -332 l 543 -159 q 475 -132 543 -132 l 475 -34 l 610 -34 q 738 -132 738 -34 l 738 -189 l 865 -73 l 991 -188 z "},"អ":{"ha":882,"x_min":26,"x_max":780,"o":"m 585 471 l 585 547 l 513 614 l 478 648 q 457 686 457 667 q 468 714 457 701 l 493 747 l 544 814 l 780 814 l 780 686 l 578 686 l 780 570 l 780 69 q 644 0 780 0 l 509 0 l 509 127 q 585 159 585 127 l 585 343 l 297 343 l 297 69 q 161 0 297 0 l 26 0 l 26 127 q 102 159 102 127 l 102 572 l 68 614 l 41 648 q 26 682 26 665 q 39 714 26 698 l 64 747 l 115 814 l 338 814 l 338 686 l 149 686 l 297 570 l 297 471 l 585 471 z "},"ឣ":{"ha":882,"x_min":26,"x_max":780,"o":"m 585 471 l 585 547 l 513 614 l 478 648 q 457 686 457 667 q 468 714 457 701 l 493 747 l 544 814 l 780 814 l 780 686 l 578 686 l 780 570 l 780 69 q 644 0 780 0 l 509 0 l 509 127 q 585 159 585 127 l 585 343 l 297 343 l 297 69 q 161 0 297 0 l 26 0 l 26 127 q 102 159 102 127 l 102 572 l 68 614 l 41 648 q 26 682 26 665 q 39 714 26 698 l 64 747 l 115 814 l 338 814 l 338 686 l 149 686 l 297 570 l 297 471 l 585 471 z "},"ឤ":{"ha":1289,"x_min":26,"x_max":1187,"o":"m 578 686 l 780 570 l 780 69 q 644 0 780 0 l 509 0 l 509 127 q 585 159 585 127 l 585 343 l 297 343 l 297 69 q 161 0 297 0 l 26 0 l 26 127 q 102 159 102 127 l 102 572 l 68 614 l 41 648 q 26 682 26 665 q 39 714 26 698 l 64 747 l 115 814 l 338 814 l 338 686 l 149 686 l 297 570 l 297 471 l 585 471 l 585 547 l 513 614 l 478 648 q 457 686 457 667 q 468 714 457 701 l 493 747 l 544 814 l 936 814 q 1118 769 1050 814 q 1187 635 1187 724 l 1187 0 l 991 0 l 991 602 q 972 668 991 650 q 902 686 953 686 l 578 686 z "},"ឥ":{"ha":882,"x_min":68,"x_max":780,"o":"m 297 304 q 439 169 439 304 q 297 0 439 0 l 199 0 q 102 83 102 0 l 102 387 q 441 606 102 606 q 780 387 780 606 l 780 0 l 585 0 l 585 387 q 441 478 585 478 q 297 387 297 478 l 297 304 m 297 94 q 359 169 359 94 q 297 210 359 210 l 297 94 m 212 686 l 198 669 q 195 661 195 666 q 240 613 195 639 l 121 552 l 117 557 q 68 648 68 620 q 80 690 68 673 l 175 814 l 543 814 q 585 848 585 814 l 585 949 l 780 949 l 780 848 q 631 686 780 686 l 212 686 z "},"ឦ":{"ha":1289,"x_min":102,"x_max":1187,"o":"m 565 -192 q 547 -135 565 -147 q 441 -122 528 -122 q 335 -135 353 -122 q 317 -192 317 -147 l 317 -228 q 389 -251 317 -251 l 389 -339 l 260 -339 q 136 -289 136 -339 l 136 -192 q 213 -79 136 -125 q 441 -34 290 -34 q 669 -79 591 -34 q 746 -192 746 -125 q 890 -224 746 -224 q 991 -176 991 -224 l 991 848 q 890 970 991 970 q 747 916 788 970 l 593 916 l 593 1289 l 788 1289 l 788 1053 q 944 1092 839 1092 q 1187 848 1187 1092 l 1187 -176 q 890 -339 1187 -339 q 565 -192 565 -339 m 297 210 l 297 94 q 359 169 359 94 q 297 210 359 210 m 551 0 l 551 595 q 424 686 551 686 q 297 595 297 686 l 297 304 q 439 169 439 304 q 297 0 439 0 l 199 0 q 102 83 102 0 l 102 595 q 424 814 102 814 q 746 595 746 814 l 746 0 l 551 0 z "},"ឧ":{"ha":882,"x_min":102,"x_max":780,"o":"m 297 219 q 353 127 297 127 q 491 179 397 127 q 585 273 585 231 l 585 326 l 780 326 l 780 -68 l 585 -68 l 585 104 q 353 0 448 0 q 102 219 102 0 l 102 397 l 377 445 q 585 595 585 486 q 441 686 585 686 q 297 608 297 686 q 365 585 297 585 l 365 488 l 229 488 q 102 585 102 488 l 102 608 q 441 814 102 814 q 780 595 780 814 q 384 325 780 390 l 297 307 l 297 219 z "},"ឨ":{"ha":882,"x_min":102,"x_max":780,"o":"m 780 1017 l 780 890 l 102 890 l 102 1017 l 780 1017 m 297 219 q 353 127 297 127 q 491 179 397 127 q 585 273 585 231 l 585 326 l 780 326 l 780 -68 l 585 -68 l 585 104 q 353 0 448 0 q 102 219 102 0 l 102 397 l 377 445 q 585 595 585 486 q 441 686 585 686 q 297 608 297 686 q 365 585 297 585 l 365 488 l 229 488 q 102 585 102 488 l 102 608 q 441 814 102 814 q 780 595 780 814 q 384 325 780 390 l 297 307 l 297 219 z "},"ឩ":{"ha":882,"x_min":102,"x_max":949,"o":"m 949 326 l 949 -68 l 822 -68 l 822 326 l 949 326 m 297 219 q 353 127 297 127 q 491 179 397 127 q 585 273 585 231 l 585 326 l 780 326 l 780 -68 l 585 -68 l 585 104 q 353 0 448 0 q 102 219 102 0 l 102 397 l 377 445 q 585 595 585 486 q 441 686 585 686 q 297 608 297 686 q 365 585 297 585 l 365 488 l 229 488 q 102 585 102 488 l 102 608 q 441 814 102 814 q 780 595 780 814 q 384 325 780 390 l 297 307 l 297 219 z "},"ឪ":{"ha":882,"x_min":68,"x_max":780,"o":"m 297 219 q 353 127 297 127 q 491 179 397 127 q 585 273 585 231 l 585 326 l 780 326 l 780 -68 l 585 -68 l 585 104 q 353 0 448 0 q 102 219 102 0 l 102 397 l 377 445 q 585 595 585 486 q 441 686 585 686 q 297 608 297 686 q 365 585 297 585 l 365 488 l 229 488 q 102 585 102 488 l 102 608 q 441 814 102 814 q 780 595 780 814 q 384 325 780 390 l 297 307 l 297 219 m 212 890 l 198 873 q 195 864 195 869 q 240 817 195 842 l 121 755 l 117 761 q 68 851 68 823 q 80 893 68 876 l 175 1017 l 543 1017 q 585 1051 585 1017 l 585 1153 l 780 1153 l 780 1051 q 631 890 780 890 l 212 890 z "},"ឫ":{"ha":882,"x_min":26,"x_max":780,"o":"m 102 -224 l 339 -224 q 585 -142 585 -224 l 509 -142 l 509 -34 l 780 -34 l 780 -122 q 339 -339 780 -339 l 102 -339 l 102 -224 m 102 572 l 68 614 l 41 648 q 26 682 26 665 q 39 714 26 698 l 64 747 l 115 814 l 338 814 l 338 686 l 149 686 l 297 570 l 297 219 q 441 94 297 94 q 585 219 585 94 l 585 547 l 513 614 l 478 648 q 457 686 457 667 q 468 714 457 701 l 493 747 l 544 814 l 780 814 l 780 686 l 578 686 l 780 570 l 780 219 q 441 0 780 0 q 102 219 102 0 l 102 572 z "},"ឬ":{"ha":882,"x_min":26,"x_max":882,"o":"m 766 -194 q 827 -237 798 -237 l 882 -237 l 882 -339 l 827 -339 q 695 -275 762 -339 q 339 -339 594 -339 l 102 -339 l 102 -224 l 339 -224 q 585 -142 585 -224 l 509 -142 l 509 -34 l 780 -34 l 780 -122 q 766 -194 780 -161 m 102 572 l 68 614 l 41 648 q 26 682 26 665 q 39 714 26 698 l 64 747 l 115 814 l 338 814 l 338 686 l 149 686 l 297 570 l 297 219 q 441 94 297 94 q 585 219 585 94 l 585 547 l 513 614 l 478 648 q 457 686 457 667 q 468 714 457 701 l 493 747 l 544 814 l 780 814 l 780 686 l 578 686 l 780 570 l 780 219 q 441 0 780 0 q 102 219 102 0 l 102 572 z "},"ឭ":{"ha":882,"x_min":102,"x_max":780,"o":"m 297 210 l 297 94 q 359 169 359 94 q 297 210 359 210 m 102 626 q 159 758 102 703 q 281 814 217 814 q 441 730 366 814 q 602 814 517 814 q 723 758 665 814 q 780 626 780 703 l 780 0 l 585 0 l 585 626 q 561 678 585 678 q 481 614 536 678 q 441 593 463 593 q 401 614 419 593 q 321 678 346 678 q 297 626 297 678 l 297 304 q 439 169 439 304 q 297 0 439 0 l 199 0 q 102 83 102 0 l 102 626 m 102 -224 l 339 -224 q 585 -142 585 -224 l 509 -142 l 509 -34 l 780 -34 l 780 -122 q 339 -339 780 -339 l 102 -339 l 102 -224 z "},"ឮ":{"ha":882,"x_min":102,"x_max":882,"o":"m 297 210 l 297 94 q 359 169 359 94 q 297 210 359 210 m 102 626 q 159 758 102 703 q 281 814 217 814 q 441 730 366 814 q 602 814 517 814 q 723 758 665 814 q 780 626 780 703 l 780 0 l 585 0 l 585 626 q 561 678 585 678 q 481 614 536 678 q 441 593 463 593 q 401 614 419 593 q 321 678 346 678 q 297 626 297 678 l 297 304 q 439 169 439 304 q 297 0 439 0 l 199 0 q 102 83 102 0 l 102 626 m 766 -194 q 827 -237 798 -237 l 882 -237 l 882 -339 l 827 -339 q 695 -275 762 -339 q 339 -339 594 -339 l 102 -339 l 102 -224 l 339 -224 q 585 -142 585 -224 l 509 -142 l 509 -34 l 780 -34 l 780 -122 q 766 -194 780 -161 z "},"ឯ":{"ha":882,"x_min":34,"x_max":780,"o":"m 102 496 q 34 524 102 524 l 34 622 l 170 622 q 297 524 297 622 l 297 177 l 441 309 l 585 178 l 585 608 q 489 686 585 686 l 359 686 q 102 892 102 686 l 102 1044 l 297 1044 l 297 892 q 359 814 297 814 l 553 814 q 780 608 780 814 l 780 0 l 598 0 l 441 142 l 284 0 l 102 0 l 102 496 z "},"ឰ":{"ha":882,"x_min":102,"x_max":780,"o":"m 454 -167 l 585 -191 l 585 -132 l 454 -167 m 297 210 l 297 94 q 359 169 359 94 q 297 210 359 210 m 294 -214 l 294 -241 q 318 -268 294 -268 q 386 -252 367 -268 q 404 -218 404 -238 l 404 -180 l 294 -214 m 780 -186 q 740 -244 780 -225 q 553 -264 699 -264 l 479 -246 q 441 -309 479 -278 q 316 -339 404 -339 q 102 -244 102 -339 l 102 -149 q 457 -85 330 -114 q 585 -34 585 -57 l 585 626 q 561 678 585 678 q 481 614 536 678 q 441 593 463 593 q 401 614 419 593 q 321 678 346 678 q 297 626 297 678 l 297 304 q 439 169 439 304 q 297 0 439 0 l 199 0 q 102 83 102 0 l 102 626 q 159 758 102 703 q 281 814 217 814 q 441 730 366 814 q 602 814 517 814 q 723 758 665 814 q 780 626 780 703 l 780 -186 z "},"ឱ":{"ha":882,"x_min":68,"x_max":800,"o":"m 212 924 l 198 907 q 195 898 195 903 q 240 825 195 876 l 247 817 l 121 755 l 117 761 q 68 851 68 823 q 80 893 68 876 l 175 1051 l 597 1051 q 800 829 766 1051 l 707 788 q 563 924 639 924 l 212 924 m 297 219 q 353 127 297 127 q 491 179 397 127 q 585 273 585 231 l 585 326 l 780 326 l 780 -68 l 585 -68 l 585 104 q 353 0 448 0 q 102 219 102 0 l 102 397 l 377 445 q 585 595 585 486 q 441 686 585 686 q 297 608 297 686 q 365 585 297 585 l 365 488 l 229 488 q 102 585 102 488 l 102 608 q 441 814 102 814 q 780 595 780 814 q 384 325 780 390 l 297 307 l 297 219 z "},"ឲ":{"ha":882,"x_min":102,"x_max":780,"o":"m 102 595 q 424 814 102 814 q 712 751 617 814 l 661 635 q 424 686 580 686 q 297 595 297 686 l 297 219 q 441 94 297 94 q 585 219 585 94 l 585 244 q 581 280 585 264 l 509 217 l 432 288 l 625 456 l 437 456 l 437 583 l 693 583 l 744 517 l 769 484 q 780 456 780 470 q 759 417 780 437 l 724 383 l 707 368 q 780 244 780 315 l 780 219 q 441 0 780 0 q 102 219 102 0 l 102 595 z "},"ឳ":{"ha":882,"x_min":68,"x_max":800,"o":"m 593 924 l 212 924 l 198 907 q 195 898 195 903 q 240 825 195 876 l 247 817 l 121 755 l 117 761 q 68 851 68 823 q 80 893 68 876 l 175 1051 l 482 1051 q 441 1165 441 1107 q 506 1282 441 1204 l 631 1236 q 579 1149 579 1199 q 597 1099 579 1120 l 640 1048 q 800 829 771 1026 l 715 778 l 593 924 m 297 219 q 353 127 297 127 q 491 179 397 127 q 585 273 585 231 l 585 326 l 780 326 l 780 -68 l 585 -68 l 585 104 q 353 0 448 0 q 102 219 102 0 l 102 397 l 377 445 q 585 595 585 486 q 441 686 585 686 q 297 608 297 686 q 365 585 297 585 l 365 488 l 229 488 q 102 585 102 488 l 102 608 q 441 814 102 814 q 780 595 780 814 q 384 325 780 390 l 297 307 l 297 219 z "},"ា":{"ha":399,"x_min":-136,"x_max":297,"o":"m 46 814 q 229 769 160 814 q 297 635 297 724 l 297 0 l 102 0 l 102 602 q 82 668 102 650 q 12 686 63 686 l -136 686 l -136 814 l 46 814 z "},"ិ":{"ha":0,"x_min":-746,"x_max":-136,"o":"m -746 1051 q -502 1221 -746 1221 q -305 1170 -401 1221 q -136 1051 -210 1119 l -136 949 l -678 949 q -746 1051 -746 949 m -502 1099 q -576 1038 -576 1099 l -300 1038 q -502 1099 -376 1099 z "},"ី":{"ha":0,"x_min":-746,"x_max":-136,"o":"m -576 1038 l -300 1038 q -502 1099 -376 1099 q -576 1038 -576 1099 m -263 1146 l -263 1255 l -136 1255 l -136 949 l -644 949 q -746 1051 -746 949 q -502 1221 -746 1221 q -305 1170 -401 1221 q -263 1146 -283 1158 z "},"ឹ":{"ha":0,"x_min":-746,"x_max":-136,"o":"m -161 1074 q -136 1051 -148 1063 l -136 949 l -644 949 q -746 1051 -746 949 q -502 1221 -746 1221 q -398 1207 -449 1221 q -391 1221 -395 1214 q -340 1271 -372 1254 q -273 1289 -307 1289 q -205 1271 -238 1289 q -154 1221 -173 1254 q -136 1153 -136 1188 q -153 1086 -136 1118 q -161 1074 -157 1079 m -223 1120 q -220 1124 -222 1122 q -213 1153 -213 1137 q -221 1182 -213 1168 q -243 1204 -229 1196 q -273 1212 -257 1212 q -302 1204 -288 1212 q -324 1183 -316 1196 q -326 1180 -325 1181 q -305 1170 -315 1175 q -223 1120 -262 1147 m -502 1099 q -576 1038 -576 1099 l -300 1038 q -502 1099 -376 1099 z "},"ឺ":{"ha":0,"x_min":-746,"x_max":-136,"o":"m -378 1201 l -378 1289 l -285 1289 l -285 1158 q -229 1124 -256 1142 l -229 1255 l -136 1255 l -136 949 l -644 949 q -746 1051 -746 949 q -502 1221 -746 1221 q -378 1201 -439 1221 m -502 1099 q -576 1038 -576 1099 l -300 1038 q -502 1099 -376 1099 z "},"ុ":{"ha":0,"x_min":-355,"x_max":-102,"o":"m -102 -47 l -102 -339 l -297 -339 l -297 -115 l -355 -115 l -355 -47 l -102 -47 z "},"ូ":{"ha":0,"x_min":-536,"x_max":-102,"o":"m -536 -47 l -381 -47 l -381 -197 q -319 -258 -381 -258 q -256 -197 -256 -258 l -256 -47 l -102 -47 l -102 -197 q -319 -339 -102 -339 q -536 -197 -536 -339 l -536 -47 z "},"ួ":{"ha":0,"x_min":-570,"x_max":-102,"o":"m -256 -226 l -256 -47 l -102 -47 l -102 -339 l -251 -339 l -336 -251 l -420 -339 l -570 -339 l -570 -47 l -415 -47 l -415 -226 l -336 -156 l -256 -226 z "},"ើ":{"ha":0,"x_min":-746,"x_max":-136,"o":"m -576 1038 l -300 1038 q -502 1099 -376 1099 q -576 1038 -576 1099 m -263 1146 l -263 1255 l -136 1255 l -136 949 l -644 949 q -746 1051 -746 949 q -502 1221 -746 1221 q -305 1170 -401 1221 q -263 1146 -283 1158 z "},"ឿ":{"ha":399,"x_min":-353,"x_max":297,"o":"m -183 1038 l 5 1038 q -96 1095 -71 1092 q -142 1099 -122 1099 q -176 1078 -170 1099 q -183 1038 -183 1058 m 136 1051 q 297 821 297 938 l 297 -176 q 0 -339 297 -339 q -297 -176 -297 -339 l -297 -34 l -68 -34 l -68 -109 l -102 -109 l -102 -176 q 0 -224 -102 -224 q 102 -176 102 -224 l 102 821 q 0 916 102 916 l -285 916 q -353 1051 -353 916 q -315 1170 -353 1119 q -210 1221 -278 1221 q -107 1201 -168 1221 l -107 1289 l -14 1289 l -14 1158 q 42 1124 15 1142 l 42 1255 l 136 1255 l 136 1051 z "},"ៀ":{"ha":399,"x_min":-297,"x_max":297,"o":"m 102 848 q 0 970 102 970 q -142 949 -102 970 l -297 949 l -297 1289 l -102 1289 l -102 1053 q 47 1092 -51 1092 q 297 848 297 1092 l 297 -176 q 0 -339 297 -339 q -297 -176 -297 -339 l -297 -34 l -68 -34 l -68 -109 l -102 -109 l -102 -176 q 0 -224 -102 -224 q 102 -176 102 -224 l 102 848 z "},"េ":{"ha":399,"x_min":26,"x_max":372,"o":"m 297 159 q 328 127 297 127 l 372 127 l 372 0 l 203 0 q 102 69 102 0 l 102 572 l 68 614 l 41 648 q 26 682 26 665 q 39 714 26 698 l 64 747 l 115 814 l 338 814 l 338 686 l 149 686 l 297 570 l 297 159 z "},"ែ":{"ha":399,"x_min":0,"x_max":414,"o":"m 0 1010 q 201 1133 0 1133 l 201 1044 q 170 1010 170 1044 q 211 990 170 990 q 278 1187 278 990 l 414 1187 q 177 882 414 882 q 0 1010 0 882 m 297 159 q 328 127 297 127 l 372 127 l 372 0 l 203 0 q 102 69 102 0 l 102 572 l 68 614 l 41 648 q 26 682 26 665 q 39 714 26 698 l 64 747 l 115 814 l 338 814 l 338 686 l 149 686 l 297 570 l 297 159 z "},"ៃ":{"ha":399,"x_min":-20,"x_max":400,"o":"m 217 990 q 258 1021 258 990 q 214 1058 258 1058 q 170 1038 170 1058 l 14 1038 l 14 1153 q -20 1187 14 1187 l -20 1289 q 170 1187 170 1289 l 170 1133 q 244 1153 207 1153 q 400 1021 400 1153 q 217 882 400 882 l 14 882 l 14 990 l 217 990 m 297 159 q 328 127 297 127 l 372 127 l 372 0 l 203 0 q 102 69 102 0 l 102 572 l 68 614 l 41 648 q 26 682 26 665 q 39 714 26 698 l 64 747 l 115 814 l 338 814 l 338 686 l 149 686 l 297 570 l 297 159 z "},"ោ":{"ha":399,"x_min":-136,"x_max":297,"o":"m 46 814 q 229 769 160 814 q 297 635 297 724 l 297 0 l 102 0 l 102 602 q 82 668 102 650 q 12 686 63 686 l -136 686 l -136 814 l 46 814 z "},"ៅ":{"ha":399,"x_min":-136,"x_max":297,"o":"m 102 1008 q 93 1048 102 1037 q 53 1059 83 1059 l 0 1059 l 0 1187 l 121 1187 q 262 1149 228 1187 q 297 1042 297 1111 l 297 839 l 102 840 l 102 1008 m 46 814 q 229 769 160 814 q 297 635 297 724 l 297 0 l 102 0 l 102 602 q 82 668 102 650 q 12 686 63 686 l -136 686 l -136 814 l 46 814 z "},"ំ":{"ha":0,"x_min":-610,"x_max":-271,"o":"m -388 1004 q -384 1021 -384 1011 l -384 1026 q -395 1052 -385 1040 q -419 1072 -406 1065 q -448 1082 -432 1080 q -457 1084 -453 1084 q -476 1080 -467 1084 q -494 1065 -488 1074 q -498 1047 -498 1057 l -498 1042 q -486 1016 -496 1029 q -463 996 -476 1004 q -433 985 -450 988 q -425 985 -429 985 q -406 989 -414 985 q -388 1004 -393 994 m -441 1187 q -358 1167 -398 1187 q -294 1111 -317 1147 q -271 1034 -271 1074 q -294 958 -271 994 q -356 902 -316 922 q -441 882 -396 882 q -525 902 -484 882 q -588 958 -565 922 q -610 1034 -610 994 q -587 1111 -610 1074 q -524 1167 -564 1147 q -441 1187 -484 1187 z "},"ះ":{"ha":576,"x_min":102,"x_max":475,"o":"m 347 122 q 351 140 351 130 l 351 144 q 338 171 349 158 q 312 191 327 183 q 281 201 298 199 q 271 202 275 202 q 250 198 259 202 q 230 183 236 193 q 226 165 226 176 l 226 160 q 238 135 227 147 q 264 115 250 122 q 296 104 279 106 q 306 103 302 103 q 327 107 317 103 q 347 122 340 113 m 288 305 q 379 286 335 305 q 449 229 424 266 q 475 153 475 193 q 450 76 475 113 q 381 20 425 40 q 288 0 338 0 q 196 20 241 0 q 127 76 152 40 q 102 153 102 113 q 127 229 102 193 q 197 286 153 266 q 288 305 241 305 m 347 631 q 351 648 351 638 l 351 653 q 338 679 349 667 q 312 699 327 692 q 281 709 298 707 q 271 711 275 711 q 250 707 259 711 q 230 692 236 701 q 226 674 226 684 l 226 669 q 238 643 227 656 q 264 623 250 631 q 296 612 279 615 q 306 612 302 612 q 327 616 317 612 q 347 631 340 621 m 288 814 q 379 794 335 814 q 449 738 424 774 q 475 661 475 701 q 450 585 475 621 q 381 529 425 549 q 288 509 338 509 q 196 529 241 509 q 127 585 152 549 q 102 661 102 621 q 127 738 102 701 q 197 794 153 774 q 288 814 241 814 z "},"ៈ":{"ha":393,"x_min":88,"x_max":292,"o":"m 190 214 q 240 205 216 214 q 278 180 264 196 q 292 146 292 163 q 278 112 292 128 q 241 87 265 96 q 190 78 216 78 q 140 87 163 78 q 102 112 116 96 q 88 146 88 128 q 102 180 88 163 q 140 205 116 196 q 190 214 163 214 m 190 722 q 240 713 216 722 q 278 688 264 705 q 292 654 292 672 q 278 621 292 637 q 241 595 265 604 q 190 587 216 587 q 140 595 163 587 q 102 621 116 604 q 88 654 88 637 q 102 688 88 672 q 140 713 116 705 q 190 722 163 722 z "},"៉":{"ha":0,"x_min":-631,"x_max":-251,"o":"m -631 882 l -631 1153 l -495 1153 l -495 882 l -631 882 m -387 882 l -387 1153 l -251 1153 l -251 882 l -387 882 z "},"៊":{"ha":0,"x_min":-746,"x_max":-136,"o":"m -746 861 l -746 997 l -493 997 l -441 929 l -388 997 l -136 997 l -136 861 l -746 861 z "},"់":{"ha":0,"x_min":-515,"x_max":-366,"o":"m -515 882 l -515 1153 l -366 1153 l -366 882 l -515 882 z "},"៌":{"ha":0,"x_min":-715,"x_max":-200,"o":"m -606 888 l -715 960 q -542 1089 -610 1017 q -452 1225 -473 1161 l -336 1198 q -384 1093 -366 1120 q -437 1031 -403 1065 q -403 1034 -420 1034 q -320 1024 -365 1034 q -200 943 -255 1010 l -312 882 q -418 958 -367 949 q -470 961 -447 961 q -522 949 -496 961 q -606 888 -561 931 z "},"៍":{"ha":0,"x_min":-712,"x_max":-170,"o":"m -544 1000 q -513 970 -544 970 l -469 970 l -469 882 l -513 882 q -712 1000 -712 882 q -531 1153 -712 1153 l -380 1153 q -303 1221 -303 1153 l -170 1221 l -170 1187 q -380 1031 -170 1031 l -497 1031 q -544 1000 -544 1031 z "},"៎":{"ha":0,"x_min":-661,"x_max":-220,"o":"m -356 1111 l -220 1111 l -220 991 l -356 991 l -356 882 l -526 882 l -526 991 l -661 991 l -661 1111 l -526 1111 l -526 1220 l -356 1220 l -356 1111 z "},"៏":{"ha":0,"x_min":-746,"x_max":-136,"o":"m -746 1019 q -543 1190 -746 1190 l -450 1190 q -305 1255 -305 1190 l -136 1255 l -136 1229 q -319 1077 -136 1077 l -481 1077 q -576 1019 -576 1077 l -576 980 l -441 1036 l -305 979 l -305 1025 l -136 1025 l -136 882 l -292 882 l -441 945 l -589 882 l -589 882 l -589 882 l -746 882 l -746 1019 z "},"័":{"ha":0,"x_min":-475,"x_max":68,"o":"m -475 1085 q -260 1214 -475 1214 l -230 1214 l -230 1126 l -262 1126 q -305 1085 -305 1126 q -210 1058 -305 1058 q -68 1221 -68 1058 l 68 1221 q -210 949 68 949 q -475 1085 -475 949 z "},"៑":{"ha":0,"x_min":-712,"x_max":-170,"o":"m -712 882 l -712 983 l -170 983 l -170 882 l -712 882 z "},"្":{"ha":0,"x_min":-627,"x_max":-254,"o":"m -390 -145 l -254 -145 l -254 -228 l -390 -228 l -390 -339 l -492 -339 l -492 -228 l -627 -228 l -627 -145 l -492 -145 l -492 -34 l -390 -34 l -390 -145 z "},"៓":{"ha":0,"x_min":-712,"x_max":-170,"o":"m -440 1131 q -512 1120 -477 1131 q -567 1090 -547 1109 q -587 1051 -587 1072 q -567 1012 -587 1031 q -512 982 -547 993 q -440 972 -477 972 q -366 982 -401 972 q -312 1012 -331 993 q -293 1051 -293 1031 q -313 1090 -293 1072 q -367 1120 -333 1109 q -440 1131 -401 1131 m -441 1221 q -307 1199 -372 1221 q -206 1136 -243 1177 q -170 1051 -170 1095 q -205 967 -170 1007 q -305 904 -240 926 q -441 882 -370 882 q -574 904 -510 882 q -675 967 -639 926 q -712 1051 -712 1007 q -675 1136 -712 1095 q -574 1199 -639 1177 q -441 1221 -509 1221 z "},"។":{"ha":814,"x_min":102,"x_max":712,"o":"m 334 720 q 297 692 297 720 q 350 656 297 656 q 477 735 436 656 l 517 814 l 712 814 l 712 0 l 517 0 l 517 608 q 282 529 443 529 q 102 692 102 529 q 272 814 102 814 l 334 814 l 334 720 z "},"៕":{"ha":1085,"x_min":102,"x_max":983,"o":"m 983 814 l 983 0 l 788 0 l 788 814 l 983 814 m 334 720 q 297 692 297 720 q 350 656 297 656 q 477 735 436 656 l 517 814 l 712 814 l 712 0 l 517 0 l 517 608 q 282 529 443 529 q 102 692 102 529 q 272 814 102 814 l 334 814 l 334 720 z "},"៖":{"ha":576,"x_min":68,"x_max":509,"o":"m 509 454 l 509 360 l 68 360 l 68 454 l 509 454 m 347 122 q 351 140 351 130 l 351 144 q 338 171 349 158 q 312 191 327 183 q 281 201 298 199 q 271 202 275 202 q 250 198 259 202 q 230 183 236 193 q 226 165 226 176 l 226 160 q 238 135 227 147 q 264 115 250 122 q 296 104 279 106 q 306 103 302 103 q 327 107 317 103 q 347 122 340 113 m 288 305 q 379 286 335 305 q 449 229 424 266 q 475 153 475 193 q 450 76 475 113 q 381 20 425 40 q 288 0 338 0 q 196 20 241 0 q 127 76 152 40 q 102 153 102 113 q 127 229 102 193 q 197 286 153 266 q 288 305 241 305 m 347 631 q 351 648 351 638 l 351 653 q 338 679 349 667 q 312 699 327 692 q 281 709 298 707 q 271 711 275 711 q 250 707 259 711 q 230 692 236 701 q 226 674 226 684 l 226 669 q 238 643 227 656 q 264 623 250 631 q 296 612 279 615 q 306 612 302 612 q 327 616 317 612 q 347 631 340 621 m 288 814 q 379 794 335 814 q 449 738 424 774 q 475 661 475 701 q 450 585 475 621 q 381 529 425 549 q 288 509 338 509 q 196 529 241 509 q 127 585 152 549 q 102 661 102 621 q 127 738 102 701 q 197 794 153 774 q 288 814 241 814 z "},"ៗ":{"ha":814,"x_min":68,"x_max":712,"o":"m 517 640 q 424 600 481 600 q 345 635 380 600 q 265 678 312 678 q 229 646 229 678 l 229 629 q 297 606 229 606 l 297 474 l 243 474 q 68 619 68 474 l 68 660 q 122 758 68 703 q 254 814 176 814 q 407 730 332 814 q 428 723 416 723 q 517 814 475 723 l 712 814 l 712 -54 q 373 -271 712 -271 l 373 -144 q 517 -54 517 -144 l 517 640 z "},"៘":{"ha":2916,"x_min":102,"x_max":2814,"o":"m 1111 210 l 1111 94 q 1173 169 1173 94 q 1111 210 1173 210 m 2001 219 q 1683 0 2001 0 q 1364 219 1364 0 l 1364 595 q 1238 686 1364 686 q 1111 595 1111 686 l 1111 304 q 1253 169 1253 304 q 1111 0 1253 0 l 1013 0 q 916 83 916 0 l 916 595 q 1238 814 916 814 q 1560 595 1560 814 l 1560 219 q 1683 127 1560 127 q 1805 219 1805 127 l 1805 547 l 1734 614 l 1699 648 q 1678 686 1678 667 q 1689 714 1678 701 l 1714 747 l 1765 814 l 2001 814 l 2001 686 l 1799 686 l 2001 570 l 2001 219 m 2436 720 q 2399 692 2399 720 q 2452 656 2399 656 q 2579 735 2538 656 l 2619 814 l 2814 814 l 2814 0 l 2619 0 l 2619 608 q 2384 529 2545 529 q 2204 692 2204 529 q 2374 814 2204 814 l 2436 814 l 2436 720 m 334 720 q 297 692 297 720 q 350 656 297 656 q 477 735 436 656 l 517 814 l 712 814 l 712 0 l 517 0 l 517 608 q 282 529 443 529 q 102 692 102 529 q 272 814 102 814 l 334 814 l 334 720 z "},"៙":{"ha":1017,"x_min":136,"x_max":882,"o":"m 509 0 q 136 407 136 0 q 509 814 136 814 q 882 407 882 814 q 509 0 882 0 m 509 746 q 229 407 229 746 q 509 68 229 68 q 789 407 789 68 q 509 746 789 746 m 509 136 q 322 407 322 136 q 509 678 322 678 q 695 407 695 678 q 509 136 695 136 m 509 610 q 416 407 416 610 q 509 203 416 203 q 602 407 602 203 q 509 610 602 610 z "},"៚":{"ha":1967,"x_min":136,"x_max":1831,"o":"m 390 814 q 647 591 647 814 q 435 444 647 444 q 392 481 392 444 q 435 517 392 517 q 560 592 560 517 q 392 740 560 740 q 220 592 220 740 l 220 222 q 392 72 220 72 q 562 154 477 72 q 732 406 647 235 l 899 737 l 984 737 l 1196 198 l 1322 663 l 1407 663 l 1535 277 l 1620 443 l 1790 443 q 1831 406 1831 443 q 1790 368 1831 368 l 1662 368 l 1577 148 l 1492 148 l 1365 517 l 1238 74 l 1154 74 l 941 647 l 800 368 q 390 0 612 0 q 136 222 136 0 l 136 592 q 390 814 136 814 z "},"៛":{"ha":399,"x_min":26,"x_max":365,"o":"m 102 343 l 27 343 l 27 471 l 102 471 l 102 572 l 68 614 l 41 648 q 26 682 26 665 q 39 714 26 698 l 64 747 l 115 814 l 297 814 l 297 686 l 149 686 l 297 570 l 297 471 l 365 471 l 365 343 l 297 343 l 297 69 q 161 0 297 0 l 26 0 l 26 127 q 102 159 102 127 l 102 343 z "},"០":{"ha":882,"x_min":102,"x_max":780,"o":"m 297 258 q 441 127 297 127 q 585 258 585 127 l 585 556 q 441 686 585 686 q 297 556 297 686 l 297 258 m 102 556 q 441 814 102 814 q 780 556 780 814 l 780 258 q 441 0 780 0 q 102 258 102 0 l 102 556 z "},"១":{"ha":882,"x_min":102,"x_max":780,"o":"m 585 217 l 585 597 q 441 686 585 686 q 297 597 297 686 l 297 515 q 349 461 297 461 l 441 461 l 441 353 l 349 353 q 102 515 102 353 l 102 597 q 441 814 102 814 q 780 597 780 814 l 780 217 q 441 0 780 0 q 102 217 102 0 l 297 217 q 441 127 297 127 q 585 217 585 127 z "},"២":{"ha":1090,"x_min":34,"x_max":989,"o":"m 989 271 q 545 0 989 0 q 102 271 102 0 l 102 882 l 34 882 l 34 983 l 102 983 q 297 882 297 983 l 297 271 q 545 127 297 127 q 793 271 793 127 l 793 666 l 685 582 l 583 666 l 583 509 l 617 509 l 617 407 l 381 407 l 381 814 l 583 814 l 685 730 l 793 814 l 989 814 l 989 271 z "},"៣":{"ha":1196,"x_min":102,"x_max":1095,"o":"m 696 0 l 500 0 l 500 570 q 399 686 500 686 q 297 570 297 686 l 297 94 l 365 94 l 365 0 l 102 0 l 102 576 q 399 814 102 814 q 597 753 534 814 q 798 814 661 814 q 1095 570 1095 814 l 1095 0 l 899 0 l 899 570 q 798 686 899 686 q 696 570 696 686 l 696 0 z "},"៤":{"ha":882,"x_min":34,"x_max":780,"o":"m 297 271 q 441 127 297 127 l 624 127 l 475 304 l 475 543 q 526 615 475 593 q 678 636 576 636 l 780 636 l 780 509 l 670 509 l 670 338 l 780 94 l 746 0 l 441 0 q 102 271 102 0 l 102 882 l 34 882 l 34 990 l 102 990 q 297 888 297 990 l 297 271 z "},"៥":{"ha":882,"x_min":102,"x_max":780,"o":"m 297 224 q 441 127 297 127 l 610 127 l 475 250 l 475 407 q 602 543 475 543 l 780 543 l 780 415 l 670 415 l 670 270 l 780 94 l 745 0 l 441 0 q 102 224 102 0 l 102 604 q 186 739 102 703 q 216 751 201 746 q 170 831 170 789 q 326 929 170 929 q 454 831 454 929 q 404 762 454 796 q 522 755 472 755 q 585 820 585 755 l 585 1065 l 780 1065 l 780 820 q 522 627 780 627 q 320 667 416 627 q 297 604 297 637 l 297 224 z "},"៦":{"ha":882,"x_min":102,"x_max":780,"o":"m 102 1051 l 297 1051 l 297 777 q 441 814 350 814 q 780 543 780 814 l 780 271 q 441 0 780 0 q 102 237 102 0 q 373 475 102 475 l 475 475 l 475 381 l 373 381 q 297 237 297 381 q 441 127 297 127 q 585 271 585 127 l 585 543 q 441 686 585 686 q 297 583 297 686 l 102 583 l 102 1051 z "},"៧":{"ha":1119,"x_min":102,"x_max":1017,"o":"m 746 127 l 822 127 l 822 1017 l 1017 1017 l 1017 127 q 784 0 1017 0 q 551 127 551 0 l 551 592 q 532 678 551 678 q 462 614 514 678 q 424 593 444 593 q 386 614 404 593 q 316 678 334 678 q 297 592 297 678 l 297 127 l 373 127 l 373 0 l 102 0 l 102 626 q 292 814 102 814 q 424 730 353 814 q 557 814 496 814 q 746 626 746 814 l 746 127 z "},"៨":{"ha":882,"x_min":102,"x_max":780,"o":"m 102 597 q 400 814 102 814 q 585 777 511 814 l 585 1051 l 780 1051 l 780 597 l 585 597 q 441 686 585 686 q 297 597 297 686 l 297 177 l 441 309 l 585 178 l 585 353 q 549 407 585 407 l 461 407 l 461 509 l 617 509 q 780 353 780 509 l 780 0 l 598 0 l 441 142 l 284 0 l 102 0 l 102 597 z "},"៩":{"ha":882,"x_min":102,"x_max":780,"o":"m 585 1024 l 780 1024 l 780 639 l 585 639 q 441 686 585 686 q 297 612 297 686 q 441 529 297 529 l 644 529 l 644 435 l 441 435 q 297 357 297 435 l 297 203 q 441 127 297 127 q 585 202 585 127 q 509 270 585 270 l 441 270 l 441 357 l 509 357 q 780 199 780 357 q 441 0 780 0 q 102 203 102 0 l 102 357 q 229 485 128 456 q 102 612 128 515 q 407 814 102 814 q 585 788 532 814 l 585 1024 z "}," ":{"ha":361,"x_min":0,"x_max":0,"o":""}}}
